# xmcd
#
# Track frame offsets:
#	150
#	10053
#	27464
#	46677
#	62064
#	73370
#	90463
#	108914
#	123939
#	138768
#	153675
#	167567
#
# Disc length: 2514 seconds
#
# Revision: 0
# Processed by: cddbd v1.5.1PL0 Copyright (c) Steve Scherf et al.
# Submitted via: dBpowerAMP V4.0
#
DISCID=9709d00c
DTITLE=Various Artist - Mix
DYEAR=1900
DGENRE=
TTITLE0=1 - David
TTITLE1=2 - 
TTITLE2=4 - 
TTITLE3=4 - 
TTITLE4=4 - 
TTITLE5=fdgfdg - 
TTITLE6=dfg - 
TTITLE7=dfg - 
TTITLE8=dfg - 
TTITLE9=dfgdfg - 
TTITLE10=dfg - 
TTITLE11=dfgfdg - 
EXTD=Hi
EXTT0=
EXTT1=
EXTT2=
EXTT3=
EXTT4=
EXTT5=
EXTT6=
EXTT7=
EXTT8=
EXTT9=
EXTT10=
EXTT11=
PLAYORDER=
